<?xml version="1.0" standalone="no"?>
<!DOCTYPE svg PUBLIC "-//W3C//DTD SVG 20010904//EN"
 "http://www.w3.org/TR/2001/REC-SVG-20010904/DTD/svg10.dtd">
<svg version="1.0" xmlns="http://www.w3.org/2000/svg"
 width="512.000000pt" height="512.000000pt" viewBox="0 0 512.000000 512.000000"
 preserveAspectRatio="xMidYMid meet">
<metadata>
Created by potrace 1.11, written by Peter Selinger 2001-2013
</metadata>
<g transform="translate(0.000000,512.000000) scale(0.100000,-0.100000)"
fill="#000000" stroke="none">
<path d="M2529 4829 c-7 -4 -17 -5 -21 -3 -5 3 -47 -32 -93 -78 -47 -46 -88
-82 -90 -79 -3 2 -5 -3 -5 -13 0 -9 -4 -14 -10 -11 -5 3 -10 2 -10 -2 0 -10
-120 -134 -120 -125 0 4 -4 1 -9 -7 -22 -34 -755 -761 -768 -761 -8 0 -11 5
-8 11 10 15 12 99 3 99 -4 0 -4 10 1 23 11 30 -6 63 -40 78 -16 6 -29 14 -29
17 0 3 18 22 39 42 39 36 39 38 29 78 -16 64 -31 69 -208 70 -115 0 -162 -4
-182 -14 -16 -8 -29 -18 -29 -22 -1 -4 -3 -73 -4 -155 l-2 -147 28 -17 c16
-10 29 -21 29 -25 0 -4 7 -8 15 -8 13 0 13 -3 3 -20 -7 -10 -14 -17 -16 -15
-3 2 -16 -5 -31 -16 l-26 -21 -1 -186 c-1 -103 -2 -194 -3 -203 -1 -9 -89
-104 -196 -212 -161 -161 -196 -201 -198 -226 -1 -17 -6 -31 -10 -31 -4 0 -2
-10 4 -22 7 -13 12 -24 11 -25 -14 -20 44 -79 93 -95 l38 -13 -2 -422 -1 -423
38 -1 c20 0 70 -1 110 -2 42 -1 72 2 72 8 0 7 3 7 8 0 4 -5 18 -10 32 -10 24
0 25 -2 26 -67 l0 -68 -68 -1 c-37 0 -101 -1 -140 -2 l-73 -2 -2 -563 c-1
-310 -4 -566 -6 -569 -3 -2 -47 -6 -99 -7 -51 -2 -94 -4 -95 -6 -2 -1 -6 -3
-10 -4 -20 -4 -79 -41 -91 -55 -92 -116 -62 -268 69 -342 20 -12 359 -14 2071
-15 1874 0 2051 1 2083 16 44 20 105 78 105 100 0 9 5 21 11 27 22 22 14 117
-15 169 -26 47 -81 94 -110 94 -8 0 -17 4 -20 9 -3 4 -46 8 -96 9 -50 0 -94 2
-97 5 -4 4 -6 200 -2 225 1 4 0 12 -1 17 -2 13 -2 59 0 155 1 41 1 77 0 80 -6
24 -3 110 4 110 6 0 5 5 -1 11 -6 6 -9 18 -6 25 4 11 -10 14 -66 14 -50 0 -71
4 -72 13 -1 13 -1 93 0 115 1 8 22 12 70 12 65 0 90 8 74 24 -4 3 -6 23 -6 44
1 20 2 71 3 112 1 41 1 80 0 85 -2 13 -2 64 0 155 1 41 1 80 0 85 -1 6 -1 38
0 73 1 62 1 62 -27 63 -15 0 -79 1 -142 2 l-115 2 -1 67 -2 68 46 1 c244 3
236 2 238 29 2 38 5 164 3 175 0 6 -2 90 -3 188 l-2 177 32 6 c17 3 40 14 51
24 11 10 23 16 26 13 3 -4 6 1 6 10 0 10 4 17 9 17 13 0 24 74 16 112 -5 21
-35 60 -91 117 -46 47 -84 89 -84 93 0 5 -3 8 -7 6 -10 -5 -72 59 -65 67 3 3
1 5 -5 5 -10 0 -306 293 -323 320 -6 8 -10 12 -10 9 0 -3 -61 56 -136 132
-131 132 -138 137 -163 126 -14 -6 -30 -17 -34 -24 -4 -7 -13 -13 -18 -13 -6
0 -26 -12 -45 -26 -19 -15 -34 -23 -34 -18 0 4 -10 -2 -22 -13 -13 -11 -39
-29 -58 -39 -19 -10 -52 -31 -74 -46 -21 -15 -43 -25 -49 -21 -5 3 -8 2 -5 -3
3 -5 -18 -23 -47 -40 l-52 -31 3 111 c2 61 6 172 8 246 3 74 6 135 6 135 1 0
3 55 5 123 2 67 0 122 -4 122 -4 0 -90 83 -192 185 -288 291 -394 395 -416
410 -24 17 -86 25 -104 14z"/>
</g>
</svg>
